<svg width="278" height="69" viewBox="0 0 278 69" fill="none" xmlns="http://www.w3.org/2000/svg">
<path d="M94.7933 23.8182H98.8239L104.222 36.9929H104.435L109.832 23.8182H113.863V42H110.702V29.5089H110.534L105.509 41.9467H103.147L98.1225 29.4822H97.9538V42H94.7933V23.8182ZM123.344 42.2663C121.977 42.2663 120.797 41.9822 119.802 41.4141C118.814 40.84 118.053 40.0291 117.521 38.9815C116.988 37.928 116.722 36.6881 116.722 35.2617C116.722 33.859 116.988 32.628 117.521 31.5685C118.059 30.5032 118.811 29.6746 119.776 29.0827C120.74 28.485 121.874 28.1861 123.176 28.1861C124.016 28.1861 124.809 28.3222 125.555 28.5945C126.307 28.8608 126.97 29.2751 127.544 29.8374C128.124 30.3996 128.579 31.1158 128.911 31.9858C129.242 32.8499 129.408 33.8797 129.408 35.0753V36.0607H118.231V33.8945H126.327C126.321 33.279 126.188 32.7315 125.928 32.2521C125.667 31.7668 125.304 31.3851 124.836 31.1069C124.374 30.8287 123.836 30.6896 123.22 30.6896C122.563 30.6896 121.986 30.8494 121.489 31.169C120.992 31.4827 120.604 31.897 120.326 32.4119C120.054 32.9209 119.915 33.4802 119.909 34.0898V35.9808C119.909 36.7739 120.054 37.4545 120.344 38.0227C120.634 38.585 121.039 39.017 121.56 39.3189C122.081 39.6148 122.69 39.7628 123.389 39.7628C123.856 39.7628 124.28 39.6977 124.658 39.5675C125.037 39.4313 125.366 39.2331 125.644 38.9727C125.922 38.7122 126.132 38.3897 126.274 38.005L129.275 38.3423C129.085 39.1354 128.724 39.8279 128.192 40.4197C127.665 41.0057 126.99 41.4614 126.168 41.7869C125.345 42.1065 124.404 42.2663 123.344 42.2663ZM137.187 42.2397C136.116 42.2397 135.157 41.9645 134.311 41.4141C133.464 40.8636 132.796 40.0646 132.304 39.017C131.813 37.9695 131.568 36.697 131.568 35.1996C131.568 33.6844 131.816 32.406 132.313 31.3643C132.816 30.3168 133.494 29.5266 134.346 28.994C135.199 28.4554 136.149 28.1861 137.196 28.1861C137.995 28.1861 138.652 28.3222 139.167 28.5945C139.682 28.8608 140.09 29.1834 140.392 29.5621C140.694 29.935 140.928 30.2872 141.093 30.6186H141.227V23.8182H144.449V42H141.289V39.8516H141.093C140.928 40.183 140.688 40.5352 140.374 40.908C140.061 41.275 139.646 41.5887 139.131 41.8491C138.617 42.1095 137.968 42.2397 137.187 42.2397ZM138.084 39.603C138.765 39.603 139.345 39.4195 139.824 39.0526C140.303 38.6797 140.667 38.1618 140.916 37.4989C141.165 36.8361 141.289 36.0637 141.289 35.1818C141.289 34.3 141.165 33.5335 140.916 32.8825C140.673 32.2314 140.312 31.7254 139.833 31.3643C139.359 31.0033 138.776 30.8228 138.084 30.8228C137.368 30.8228 136.77 31.0092 136.291 31.3821C135.811 31.755 135.45 32.2699 135.207 32.9268C134.965 33.5838 134.843 34.3355 134.843 35.1818C134.843 36.0341 134.965 36.7946 135.207 37.4634C135.456 38.1263 135.82 38.6501 136.299 39.0348C136.785 39.4136 137.38 39.603 138.084 39.603ZM147.874 42V28.3636H151.088V42H147.874ZM149.49 26.4283C148.981 26.4283 148.543 26.2596 148.176 25.9222C147.809 25.579 147.625 25.1676 147.625 24.6882C147.625 24.2029 147.809 23.7915 148.176 23.4542C148.543 23.1109 148.981 22.9393 149.49 22.9393C150.005 22.9393 150.443 23.1109 150.804 23.4542C151.171 23.7915 151.354 24.2029 151.354 24.6882C151.354 25.1676 151.171 25.579 150.804 25.9222C150.443 26.2596 150.005 26.4283 149.49 26.4283ZM158.316 42.2752C157.452 42.2752 156.674 42.1213 155.982 41.8136C155.295 41.4999 154.751 41.0382 154.348 40.4286C153.952 39.819 153.753 39.0674 153.753 38.1737C153.753 37.4042 153.895 36.768 154.179 36.2649C154.464 35.7618 154.851 35.3594 155.342 35.0575C155.834 34.7557 156.387 34.5278 157.003 34.3739C157.624 34.2141 158.266 34.0987 158.929 34.0277C159.728 33.9448 160.376 33.8709 160.873 33.8058C161.37 33.7347 161.732 33.6282 161.956 33.4862C162.187 33.3382 162.303 33.1103 162.303 32.8026V32.7493C162.303 32.0805 162.104 31.5626 161.708 31.1957C161.311 30.8287 160.74 30.6452 159.994 30.6452C159.207 30.6452 158.583 30.8169 158.121 31.1602C157.665 31.5034 157.358 31.9089 157.198 32.3764L154.197 31.9503C154.434 31.1217 154.825 30.4292 155.369 29.8729C155.914 29.3106 156.579 28.8904 157.367 28.6122C158.154 28.3281 159.024 28.1861 159.977 28.1861C160.634 28.1861 161.288 28.263 161.939 28.4169C162.59 28.5708 163.185 28.8253 163.723 29.1804C164.262 29.5296 164.694 30.006 165.019 30.6097C165.351 31.2134 165.516 31.968 165.516 32.8736V42H162.427V40.1268H162.32C162.125 40.5056 161.85 40.8607 161.495 41.1921C161.146 41.5176 160.705 41.781 160.172 41.9822C159.645 42.1776 159.027 42.2752 158.316 42.2752ZM159.151 39.9137C159.796 39.9137 160.355 39.7865 160.829 39.532C161.302 39.2715 161.666 38.9283 161.921 38.5021C162.181 38.076 162.312 37.6114 162.312 37.1083V35.5014C162.211 35.5843 162.039 35.6612 161.797 35.7322C161.56 35.8033 161.294 35.8654 160.998 35.9187C160.702 35.9719 160.409 36.0193 160.119 36.0607C159.829 36.1022 159.577 36.1377 159.364 36.1673C158.885 36.2324 158.456 36.3389 158.077 36.4869C157.698 36.6348 157.399 36.842 157.18 37.1083C156.961 37.3687 156.852 37.7061 156.852 38.1204C156.852 38.7122 157.068 39.1591 157.5 39.4609C157.932 39.7628 158.482 39.9137 159.151 39.9137ZM176.063 23.8182H179.33V36.6023C179.324 37.7741 179.076 38.7833 178.585 39.6296C178.093 40.4701 177.407 41.1181 176.525 41.5739C175.649 42.0237 174.628 42.2486 173.462 42.2486C172.397 42.2486 171.438 42.0592 170.586 41.6804C169.739 41.2957 169.068 40.7275 168.57 39.9759C168.073 39.2242 167.825 38.2891 167.825 37.1705H171.101C171.107 37.6617 171.213 38.0849 171.42 38.44C171.633 38.7951 171.926 39.0674 172.299 39.2567C172.672 39.4461 173.101 39.5408 173.586 39.5408C174.113 39.5408 174.56 39.4313 174.927 39.2124C175.294 38.9875 175.572 38.656 175.761 38.218C175.957 37.7801 176.057 37.2415 176.063 36.6023V23.8182ZM182.762 42V28.3636H185.975V42H182.762ZM184.377 26.4283C183.868 26.4283 183.43 26.2596 183.063 25.9222C182.697 25.579 182.513 25.1676 182.513 24.6882C182.513 24.2029 182.697 23.7915 183.063 23.4542C183.43 23.1109 183.868 22.9393 184.377 22.9393C184.892 22.9393 185.33 23.1109 185.691 23.4542C186.058 23.7915 186.242 24.2029 186.242 24.6882C186.242 25.1676 186.058 25.579 185.691 25.9222C185.33 26.2596 184.892 26.4283 184.377 26.4283ZM189.28 42V28.3636H192.396V30.6364H192.538C192.787 29.8492 193.213 29.2425 193.817 28.8164C194.426 28.3844 195.122 28.1683 195.903 28.1683C196.081 28.1683 196.279 28.1772 196.498 28.195C196.723 28.2068 196.909 28.2275 197.057 28.2571V31.2134C196.921 31.1661 196.705 31.1246 196.409 31.0891C196.119 31.0477 195.838 31.027 195.566 31.027C194.98 31.027 194.453 31.1542 193.985 31.4087C193.524 31.6573 193.16 32.0036 192.893 32.4474C192.627 32.8913 192.494 33.4033 192.494 33.9833V42H189.28ZM202.872 42.2752C202.008 42.2752 201.23 42.1213 200.537 41.8136C199.851 41.4999 199.306 41.0382 198.904 40.4286C198.507 39.819 198.309 39.0674 198.309 38.1737C198.309 37.4042 198.451 36.768 198.735 36.2649C199.019 35.7618 199.407 35.3594 199.898 35.0575C200.389 34.7557 200.943 34.5278 201.558 34.3739C202.18 34.2141 202.822 34.0987 203.485 34.0277C204.284 33.9448 204.932 33.8709 205.429 33.8058C205.926 33.7347 206.287 33.6282 206.512 33.4862C206.743 33.3382 206.858 33.1103 206.858 32.8026V32.7493C206.858 32.0805 206.66 31.5626 206.263 31.1957C205.867 30.8287 205.296 30.6452 204.55 30.6452C203.763 30.6452 203.138 30.8169 202.677 31.1602C202.221 31.5034 201.913 31.9089 201.754 32.3764L198.753 31.9503C198.99 31.1217 199.38 30.4292 199.925 29.8729C200.469 29.3106 201.135 28.8904 201.922 28.6122C202.709 28.3281 203.579 28.1861 204.532 28.1861C205.189 28.1861 205.843 28.263 206.494 28.4169C207.145 28.5708 207.74 28.8253 208.279 29.1804C208.817 29.5296 209.249 30.006 209.575 30.6097C209.906 31.2134 210.072 31.968 210.072 32.8736V42H206.983V40.1268H206.876C206.681 40.5056 206.406 40.8607 206.05 41.1921C205.701 41.5176 205.26 41.781 204.728 41.9822C204.201 42.1776 203.582 42.2752 202.872 42.2752ZM203.707 39.9137C204.352 39.9137 204.911 39.7865 205.385 39.532C205.858 39.2715 206.222 38.9283 206.477 38.5021C206.737 38.076 206.867 37.6114 206.867 37.1083V35.5014C206.767 35.5843 206.595 35.6612 206.352 35.7322C206.116 35.8033 205.849 35.8654 205.553 35.9187C205.257 35.9719 204.964 36.0193 204.674 36.0607C204.384 36.1022 204.133 36.1377 203.92 36.1673C203.44 36.2324 203.011 36.3389 202.632 36.4869C202.254 36.6348 201.955 36.842 201.736 37.1083C201.517 37.3687 201.407 37.7061 201.407 38.1204C201.407 38.7122 201.623 39.1591 202.055 39.4609C202.487 39.7628 203.038 39.9137 203.707 39.9137Z" fill="#0B3051"/>
<path opacity="0.6" d="M53.1667 42C53.1667 45.3188 51.5625 48.3188 49 50.3625C46.7917 52.1625 43.875 53.25 40.6667 53.25C33.7709 53.25 28.1667 48.2063 28.1667 42C28.1667 36.825 32.0834 32.4375 37.375 31.1438C38.8125 34.4063 41.8959 36.9188 45.7084 37.8563C46.75 38.1188 47.8542 38.25 49 38.25C50.1459 38.25 51.25 38.1188 52.2917 37.8563C52.8542 39.1313 53.1667 40.5375 53.1667 42Z" fill="#1E638A"/>
<path d="M61.5 27C61.5 28.4625 61.1875 29.8687 60.625 31.1438C59.1875 34.4062 56.1042 36.9188 52.2917 37.8563C51.25 38.1187 50.1458 38.25 49 38.25C47.8542 38.25 46.75 38.1187 45.7083 37.8563C41.8958 36.9188 38.8125 34.4062 37.375 31.1438C36.8125 29.8687 36.5 28.4625 36.5 27C36.5 20.7938 42.1042 15.75 49 15.75C55.8958 15.75 61.5 20.7938 61.5 27Z" fill="#1E638A"/>
<path opacity="0.4" d="M69.8333 42C69.8333 48.2063 64.2292 53.25 57.3333 53.25C54.125 53.25 51.2083 52.1625 49 50.3625C51.5625 48.3188 53.1667 45.3188 53.1667 42C53.1667 40.5375 52.8542 39.1313 52.2917 37.8563C56.1042 36.9188 59.1875 34.4063 60.625 31.1438C65.9167 32.4375 69.8333 36.825 69.8333 42Z" fill="#1E638A"/>
</svg>
